# xmcd
#
# Track frame offsets: 
#        150
#        11160
#        29470
#        45765
#        58940
#        69750
#        91662
#        110165
#        131752
#        147405
#        160385
#
# Disc length: 2440 seconds
#
# Revision: 3
# Processed by: cddbd v1.5.2PL0 Copyright (c) Steve Scherf et al.
# Submitted via: ExactAudioCopyFreeDBPlugin 1.0
#
DISCID=9409860b
DTITLE=Laurie Lewis - Restless Rambling Heart
DYEAR=1986
DGENRE=Country
TTITLE0=Bowling Green
TTITLE1=The Cowgirl's Song
TTITLE2=Restless Rambling Heart
TTITLE3=Cry, Cry, Darling
TTITLE4=Stealin' Chickens
TTITLE5=The Maple's Lament
TTITLE6=Here We Go Again
TTITLE7=Green Fields
TTITLE8=Hold to a Dream
TTITLE9=I'm Gonna Be the Wind
TTITLE10=Haven of Mercy
EXTD=
EXTT0=
EXTT1=
EXTT2=
EXTT3=
EXTT4=
EXTT5=
EXTT6=
EXTT7=
EXTT8=
EXTT9=
EXTT10=
PLAYORDER=
